<svg xmlns="http://www.w3.org/2000/svg" width="80" height="130" viewBox="0 0 80 130" shape-rendering="crispEdges">
<rect x="20" y="0" width="5" height="5" fill="#c8a252"/><rect x="25" y="0" width="5" height="5" fill="#c8a252"/><rect x="30" y="0" width="5" height="5" fill="#c8a252"/><rect x="35" y="0" width="5" height="5" fill="#c8a252"/><rect x="40" y="0" width="5" height="5" fill="#c8a252"/><rect x="45" y="0" width="5" height="5" fill="#c8a252"/><rect x="50" y="0" width="5" height="5" fill="#c8a252"/><rect x="55" y="0" width="5" height="5" fill="#c8a252"/><rect x="15" y="5" width="5" height="5" fill="#c8a252"/><rect x="20" y="5" width="5" height="5" fill="#c8a252"/><rect x="25" y="5" width="5" height="5" fill="#c8a252"/><rect x="30" y="5" width="5" height="5" fill="#c8a252"/><rect x="35" y="5" width="5" height="5" fill="#c8a252"/><rect x="40" y="5" width="5" height="5" fill="#c8a252"/><rect x="45" y="5" width="5" height="5" fill="#c8a252"/><rect x="50" y="5" width="5" height="5" fill="#c8a252"/><rect x="55" y="5" width="5" height="5" fill="#c8a252"/><rect x="60" y="5" width="5" height="5" fill="#c8a252"/><rect x="10" y="10" width="5" height="5" fill="#c8a252"/><rect x="15" y="10" width="5" height="5" fill="#c8a252"/><rect x="20" y="10" width="5" height="5" fill="#c8a252"/><rect x="25" y="10" width="5" height="5" fill="#c8a252"/><rect x="30" y="10" width="5" height="5" fill="#c8a252"/><rect x="35" y="10" width="5" height="5" fill="#c8a252"/><rect x="40" y="10" width="5" height="5" fill="#c8a252"/><rect x="45" y="10" width="5" height="5" fill="#c8a252"/><rect x="50" y="10" width="5" height="5" fill="#c8a252"/><rect x="55" y="10" width="5" height="5" fill="#c8a252"/><rect x="60" y="10" width="5" height="5" fill="#c8a252"/><rect x="65" y="10" width="5" height="5" fill="#c8a252"/><rect x="5" y="15" width="5" height="5" fill="#a07830"/><rect x="10" y="15" width="5" height="5" fill="#a07830"/><rect x="15" y="15" width="5" height="5" fill="#a07830"/><rect x="20" y="15" width="5" height="5" fill="#a07830"/><rect x="25" y="15" width="5" height="5" fill="#a07830"/><rect x="30" y="15" width="5" height="5" fill="#a07830"/><rect x="35" y="15" width="5" height="5" fill="#a07830"/><rect x="40" y="15" width="5" height="5" fill="#a07830"/><rect x="45" y="15" width="5" height="5" fill="#a07830"/><rect x="50" y="15" width="5" height="5" fill="#a07830"/><rect x="55" y="15" width="5" height="5" fill="#a07830"/><rect x="60" y="15" width="5" height="5" fill="#a07830"/><rect x="65" y="15" width="5" height="5" fill="#a07830"/><rect x="10" y="20" width="5" height="5" fill="#6b3520"/><rect x="15" y="20" width="5" height="5" fill="#6b3520"/><rect x="20" y="20" width="5" height="5" fill="#6b3520"/><rect x="25" y="20" width="5" height="5" fill="#cd9060"/><rect x="30" y="20" width="5" height="5" fill="#cd9060"/><rect x="35" y="20" width="5" height="5" fill="#cd9060"/><rect x="40" y="20" width="5" height="5" fill="#cd9060"/><rect x="45" y="20" width="5" height="5" fill="#cd9060"/><rect x="50" y="20" width="5" height="5" fill="#cd9060"/><rect x="55" y="20" width="5" height="5" fill="#6b3520"/><rect x="60" y="20" width="5" height="5" fill="#6b3520"/><rect x="10" y="25" width="5" height="5" fill="#6b3520"/><rect x="15" y="25" width="5" height="5" fill="#cd9060"/><rect x="20" y="25" width="5" height="5" fill="#cd9060"/><rect x="25" y="25" width="5" height="5" fill="#cd9060"/><rect x="30" y="25" width="5" height="5" fill="#cd9060"/><rect x="35" y="25" width="5" height="5" fill="#cd9060"/><rect x="40" y="25" width="5" height="5" fill="#cd9060"/><rect x="45" y="25" width="5" height="5" fill="#cd9060"/><rect x="50" y="25" width="5" height="5" fill="#cd9060"/><rect x="55" y="25" width="5" height="5" fill="#cd9060"/><rect x="60" y="25" width="5" height="5" fill="#6b3520"/><rect x="10" y="30" width="5" height="5" fill="#6b3520"/><rect x="15" y="30" width="5" height="5" fill="#cd9060"/><rect x="20" y="30" width="5" height="5" fill="#cd9060"/><rect x="25" y="30" width="5" height="5" fill="#cd9060"/><rect x="30" y="30" width="5" height="5" fill="#c8e4f0"/><rect x="35" y="30" width="5" height="5" fill="#a8cce0"/><rect x="40" y="30" width="5" height="5" fill="#c8e4f0"/><rect x="45" y="30" width="5" height="5" fill="#cd9060"/><rect x="50" y="30" width="5" height="5" fill="#c8e4f0"/><rect x="55" y="30" width="5" height="5" fill="#a8cce0"/><rect x="60" y="30" width="5" height="5" fill="#cd9060"/><rect x="65" y="30" width="5" height="5" fill="#6b3520"/><rect x="10" y="35" width="5" height="5" fill="#6b3520"/><rect x="15" y="35" width="5" height="5" fill="#cd9060"/><rect x="20" y="35" width="5" height="5" fill="#cd9060"/><rect x="25" y="35" width="5" height="5" fill="#cd9060"/><rect x="30" y="35" width="5" height="5" fill="#c8e4f0"/><rect x="35" y="35" width="5" height="5" fill="#1a1008"/><rect x="40" y="35" width="5" height="5" fill="#cd9060"/><rect x="45" y="35" width="5" height="5" fill="#c8e4f0"/><rect x="50" y="35" width="5" height="5" fill="#1a1008"/><rect x="55" y="35" width="5" height="5" fill="#cd9060"/><rect x="65" y="35" width="5" height="5" fill="#6b3520"/><rect x="10" y="40" width="5" height="5" fill="#6b3520"/><rect x="15" y="40" width="5" height="5" fill="#cd9060"/><rect x="20" y="40" width="5" height="5" fill="#cd9060"/><rect x="25" y="40" width="5" height="5" fill="#cd9060"/><rect x="30" y="40" width="5" height="5" fill="#c8e4f0"/><rect x="35" y="40" width="5" height="5" fill="#a8cce0"/><rect x="40" y="40" width="5" height="5" fill="#c8e4f0"/><rect x="45" y="40" width="5" height="5" fill="#cd9060"/><rect x="50" y="40" width="5" height="5" fill="#c8e4f0"/><rect x="55" y="40" width="5" height="5" fill="#a8cce0"/><rect x="60" y="40" width="5" height="5" fill="#cd9060"/><rect x="65" y="40" width="5" height="5" fill="#6b3520"/><rect x="10" y="45" width="5" height="5" fill="#6b3520"/><rect x="15" y="45" width="5" height="5" fill="#cd9060"/><rect x="20" y="45" width="5" height="5" fill="#cd9060"/><rect x="25" y="45" width="5" height="5" fill="#cd9060"/><rect x="30" y="45" width="5" height="5" fill="#cd9060"/><rect x="35" y="45" width="5" height="5" fill="#cd9060"/><rect x="40" y="45" width="5" height="5" fill="#2a1a08"/><rect x="45" y="45" width="5" height="5" fill="#cd9060"/><rect x="50" y="45" width="5" height="5" fill="#cd9060"/><rect x="55" y="45" width="5" height="5" fill="#cd9060"/><rect x="65" y="45" width="5" height="5" fill="#6b3520"/><rect x="10" y="50" width="5" height="5" fill="#6b3520"/><rect x="15" y="50" width="5" height="5" fill="#cd9060"/><rect x="20" y="50" width="5" height="5" fill="#cd9060"/><rect x="25" y="50" width="5" height="5" fill="#2a1a08"/><rect x="30" y="50" width="5" height="5" fill="#2a1a08"/><rect x="35" y="50" width="5" height="5" fill="#2a1a08"/><rect x="40" y="50" width="5" height="5" fill="#2a1a08"/><rect x="45" y="50" width="5" height="5" fill="#2a1a08"/><rect x="50" y="50" width="5" height="5" fill="#2a1a08"/><rect x="60" y="50" width="5" height="5" fill="#6b3520"/><rect x="65" y="50" width="5" height="5" fill="#6b3520"/><rect x="15" y="55" width="5" height="5" fill="#cd9060"/><rect x="25" y="55" width="5" height="5" fill="#1a1008"/><rect x="30" y="55" width="5" height="5" fill="#1a1008"/><rect x="35" y="55" width="5" height="5" fill="#1a1008"/><rect x="40" y="55" width="5" height="5" fill="#1a1008"/><rect x="45" y="55" width="5" height="5" fill="#1a1008"/><rect x="50" y="55" width="5" height="5" fill="#cd9060"/><rect x="55" y="55" width="5" height="5" fill="#cd9060"/><rect x="60" y="55" width="5" height="5" fill="#cd9060"/><rect x="20" y="60" width="5" height="5" fill="#1a1008"/><rect x="25" y="60" width="5" height="5" fill="#1a1008"/><rect x="30" y="60" width="5" height="5" fill="#1a1008"/><rect x="35" y="60" width="5" height="5" fill="#1a1008"/><rect x="40" y="60" width="5" height="5" fill="#1a1008"/><rect x="45" y="60" width="5" height="5" fill="#1a1008"/><rect x="50" y="60" width="5" height="5" fill="#1a1008"/><rect x="15" y="65" width="5" height="5" fill="#3d7245"/><rect x="20" y="65" width="5" height="5" fill="#3d7245"/><rect x="25" y="65" width="5" height="5" fill="#3d7245"/><rect x="30" y="65" width="5" height="5" fill="#f2ede4"/><rect x="35" y="65" width="5" height="5" fill="#f2ede4"/><rect x="40" y="65" width="5" height="5" fill="#f2ede4"/><rect x="45" y="65" width="5" height="5" fill="#3d7245"/><rect x="50" y="65" width="5" height="5" fill="#3d7245"/><rect x="55" y="65" width="5" height="5" fill="#3d7245"/><rect x="10" y="70" width="5" height="5" fill="#3d7245"/><rect x="15" y="70" width="5" height="5" fill="#3d7245"/><rect x="20" y="70" width="5" height="5" fill="#3d7245"/><rect x="25" y="70" width="5" height="5" fill="#3d7245"/><rect x="30" y="70" width="5" height="5" fill="#f2ede4"/><rect x="35" y="70" width="5" height="5" fill="#f2ede4"/><rect x="40" y="70" width="5" height="5" fill="#d8d3c8"/><rect x="45" y="70" width="5" height="5" fill="#3d7245"/><rect x="50" y="70" width="5" height="5" fill="#3d7245"/><rect x="55" y="70" width="5" height="5" fill="#3d7245"/><rect x="60" y="70" width="5" height="5" fill="#3d7245"/><rect x="5" y="75" width="5" height="5" fill="#3d7245"/><rect x="10" y="75" width="5" height="5" fill="#3d7245"/><rect x="15" y="75" width="5" height="5" fill="#3d7245"/><rect x="20" y="75" width="5" height="5" fill="#3d7245"/><rect x="25" y="75" width="5" height="5" fill="#3d7245"/><rect x="30" y="75" width="5" height="5" fill="#f2ede4"/><rect x="35" y="75" width="5" height="5" fill="#f2ede4"/><rect x="40" y="75" width="5" height="5" fill="#d8d3c8"/><rect x="45" y="75" width="5" height="5" fill="#3d7245"/><rect x="50" y="75" width="5" height="5" fill="#3d7245"/><rect x="55" y="75" width="5" height="5" fill="#3d7245"/><rect x="60" y="75" width="5" height="5" fill="#3d7245"/><rect x="65" y="75" width="5" height="5" fill="#3d7245"/><rect x="0" y="80" width="5" height="5" fill="#cd9060"/><rect x="5" y="80" width="5" height="5" fill="#3d7245"/><rect x="10" y="80" width="5" height="5" fill="#3d7245"/><rect x="15" y="80" width="5" height="5" fill="#3d7245"/><rect x="20" y="80" width="5" height="5" fill="#3d7245"/><rect x="25" y="80" width="5" height="5" fill="#3d7245"/><rect x="30" y="80" width="5" height="5" fill="#f2ede4"/><rect x="35" y="80" width="5" height="5" fill="#f2ede4"/><rect x="40" y="80" width="5" height="5" fill="#d8d3c8"/><rect x="45" y="80" width="5" height="5" fill="#3d7245"/><rect x="50" y="80" width="5" height="5" fill="#3d7245"/><rect x="55" y="80" width="5" height="5" fill="#3d7245"/><rect x="60" y="80" width="5" height="5" fill="#3d7245"/><rect x="65" y="80" width="5" height="5" fill="#3d7245"/><rect x="70" y="80" width="5" height="5" fill="#cd9060"/><rect x="0" y="85" width="5" height="5" fill="#cd9060"/><rect x="5" y="85" width="5" height="5" fill="#3d7245"/><rect x="10" y="85" width="5" height="5" fill="#3d7245"/><rect x="15" y="85" width="5" height="5" fill="#3d7245"/><rect x="20" y="85" width="5" height="5" fill="#3d7245"/><rect x="25" y="85" width="5" height="5" fill="#3d7245"/><rect x="30" y="85" width="5" height="5" fill="#f2ede4"/><rect x="35" y="85" width="5" height="5" fill="#f2ede4"/><rect x="40" y="85" width="5" height="5" fill="#d8d3c8"/><rect x="45" y="85" width="5" height="5" fill="#3d7245"/><rect x="50" y="85" width="5" height="5" fill="#3d7245"/><rect x="55" y="85" width="5" height="5" fill="#3d7245"/><rect x="60" y="85" width="5" height="5" fill="#3d7245"/><rect x="65" y="85" width="5" height="5" fill="#3d7245"/><rect x="70" y="85" width="5" height="5" fill="#cd9060"/><rect x="5" y="90" width="5" height="5" fill="#cd9060"/><rect x="10" y="90" width="5" height="5" fill="#3d7245"/><rect x="15" y="90" width="5" height="5" fill="#3d7245"/><rect x="20" y="90" width="5" height="5" fill="#3d7245"/><rect x="25" y="90" width="5" height="5" fill="#3d7245"/><rect x="30" y="90" width="5" height="5" fill="#f2ede4"/><rect x="35" y="90" width="5" height="5" fill="#f2ede4"/><rect x="40" y="90" width="5" height="5" fill="#d8d3c8"/><rect x="45" y="90" width="5" height="5" fill="#3d7245"/><rect x="50" y="90" width="5" height="5" fill="#3d7245"/><rect x="55" y="90" width="5" height="5" fill="#3d7245"/><rect x="60" y="90" width="5" height="5" fill="#3d7245"/><rect x="65" y="90" width="5" height="5" fill="#cd9060"/><rect x="10" y="95" width="5" height="5" fill="#3d7245"/><rect x="15" y="95" width="5" height="5" fill="#3d7245"/><rect x="20" y="95" width="5" height="5" fill="#3d7245"/><rect x="25" y="95" width="5" height="5" fill="#3d7245"/><rect x="30" y="95" width="5" height="5" fill="#f2ede4"/><rect x="35" y="95" width="5" height="5" fill="#f2ede4"/><rect x="40" y="95" width="5" height="5" fill="#d8d3c8"/><rect x="45" y="95" width="5" height="5" fill="#3d7245"/><rect x="50" y="95" width="5" height="5" fill="#3d7245"/><rect x="55" y="95" width="5" height="5" fill="#3d7245"/><rect x="60" y="95" width="5" height="5" fill="#3d7245"/><rect x="15" y="100" width="5" height="5" fill="#1e2848"/><rect x="20" y="100" width="5" height="5" fill="#1e2848"/><rect x="25" y="100" width="5" height="5" fill="#1e2848"/><rect x="30" y="100" width="5" height="5" fill="#1e2848"/><rect x="35" y="100" width="5" height="5" fill="#1e2848"/><rect x="40" y="100" width="5" height="5" fill="#1e2848"/><rect x="45" y="100" width="5" height="5" fill="#1e2848"/><rect x="50" y="100" width="5" height="5" fill="#1e2848"/><rect x="55" y="100" width="5" height="5" fill="#1e2848"/><rect x="60" y="100" width="5" height="5" fill="#1e2848"/><rect x="15" y="105" width="5" height="5" fill="#1e2848"/><rect x="20" y="105" width="5" height="5" fill="#1e2848"/><rect x="25" y="105" width="5" height="5" fill="#1e2848"/><rect x="30" y="105" width="5" height="5" fill="#1e2848"/><rect x="40" y="105" width="5" height="5" fill="#1e2848"/><rect x="45" y="105" width="5" height="5" fill="#1e2848"/><rect x="50" y="105" width="5" height="5" fill="#1e2848"/><rect x="55" y="105" width="5" height="5" fill="#1e2848"/><rect x="60" y="105" width="5" height="5" fill="#1e2848"/><rect x="15" y="110" width="5" height="5" fill="#1e2848"/><rect x="20" y="110" width="5" height="5" fill="#1e2848"/><rect x="25" y="110" width="5" height="5" fill="#1e2848"/><rect x="40" y="110" width="5" height="5" fill="#1e2848"/><rect x="45" y="110" width="5" height="5" fill="#1e2848"/><rect x="50" y="110" width="5" height="5" fill="#1e2848"/><rect x="55" y="110" width="5" height="5" fill="#1e2848"/><rect x="15" y="115" width="5" height="5" fill="#1e2848"/><rect x="20" y="115" width="5" height="5" fill="#1e2848"/><rect x="25" y="115" width="5" height="5" fill="#1e2848"/><rect x="40" y="115" width="5" height="5" fill="#1e2848"/><rect x="45" y="115" width="5" height="5" fill="#1e2848"/><rect x="50" y="115" width="5" height="5" fill="#1e2848"/><rect x="55" y="115" width="5" height="5" fill="#1e2848"/><rect x="15" y="120" width="5" height="5" fill="#101010"/><rect x="20" y="120" width="5" height="5" fill="#101010"/><rect x="25" y="120" width="5" height="5" fill="#101010"/><rect x="40" y="120" width="5" height="5" fill="#101010"/><rect x="45" y="120" width="5" height="5" fill="#101010"/><rect x="50" y="120" width="5" height="5" fill="#101010"/><rect x="55" y="120" width="5" height="5" fill="#101010"/><rect x="10" y="125" width="5" height="5" fill="#101010"/><rect x="15" y="125" width="5" height="5" fill="#101010"/><rect x="20" y="125" width="5" height="5" fill="#101010"/><rect x="25" y="125" width="5" height="5" fill="#101010"/><rect x="30" y="125" width="5" height="5" fill="#101010"/><rect x="40" y="125" width="5" height="5" fill="#101010"/><rect x="45" y="125" width="5" height="5" fill="#101010"/><rect x="50" y="125" width="5" height="5" fill="#101010"/><rect x="55" y="125" width="5" height="5" fill="#101010"/><rect x="60" y="125" width="5" height="5" fill="#101010"/>
</svg>